<svg width="915" height="580" viewBox="0 0 915 580" fill="none" xmlns="http://www.w3.org/2000/svg">
<path d="M587.425 366.116L593.807 395.559C598.071 415.229 600.203 425.064 607.63 430.585C615.058 436.106 625.7 435.766 646.983 435.087L670.572 434.333C688.59 433.758 697.599 433.471 704.468 437.685C711.337 441.9 714.583 449.708 721.076 465.324L735.234 499.377C741.267 513.887 744.283 521.141 750.552 525.313C756.82 529.486 765.142 529.778 781.786 530.362L863.091 533.216" stroke="#F9F9F9" stroke-opacity="0.2" stroke-width="0.444676" stroke-linecap="round"/>
<path d="M607.671 316.655L637.446 321.248C657.337 324.317 667.283 325.851 675.099 320.895C682.915 315.94 686.412 305.883 693.405 285.769L701.155 263.477C707.075 246.45 710.035 237.936 716.432 233.034C722.828 228.132 731.281 227.899 748.186 227.434L785.052 226.42C800.759 225.987 808.613 225.771 814.754 221.414C820.896 217.057 824.151 209.393 830.661 194.064L862.462 119.182" stroke="#F9F9F9" stroke-opacity="0.2" stroke-width="0.444676" stroke-linecap="round"/>
<path d="M370.676 330.827L413.196 320.086C434.858 314.614 445.69 311.878 452.317 303.874C458.944 295.87 459.381 284.996 460.255 263.249L461.741 226.294C462.482 207.858 462.852 198.64 468.04 191.283C473.227 183.927 482.025 180.142 499.622 172.573L550.965 150.487C567.317 143.453 575.493 139.936 580.585 133.194C585.676 126.452 586.633 117.877 588.546 100.727L599.44 3.06109" stroke="#F9F9F9" stroke-opacity="0.2" stroke-width="0.444676" stroke-linecap="round"/>
<path d="M341.93 269.792L330.425 241.948C322.739 223.347 318.897 214.046 310.607 209.931C302.318 205.815 291.905 208.037 271.08 212.482L247.999 217.409C230.369 221.171 221.554 223.053 214.046 220.123C206.538 217.194 201.958 210.086 192.798 195.87L172.823 164.868C164.312 151.66 160.056 145.055 153.147 142.061C146.238 139.068 137.996 140.256 121.512 142.634L40.9913 154.251" stroke="#F9F9F9" stroke-opacity="0.2" stroke-width="0.444676" stroke-linecap="round"/>
</svg>
