<svg width="14" height="12" viewBox="0 0 14 12" fill="none" xmlns="http://www.w3.org/2000/svg">
<path d="M2.75673 4.73743L2.50298 7.5203C2.40975 8.54278 2.40975 8.54278 3.31898 9.19388L5.84279 10.7276C6.22365 10.9591 6.87745 10.9591 7.29569 10.7276L10.0992 9.19388C11.1272 8.54278 11.1272 8.54278 11.22 7.52512L11.4741 4.73743C11.5669 3.71978 11.5669 3.71978 10.6577 3.06867L8.1339 1.53496C7.75789 1.30345 7.10408 1.30345 6.681 1.53496L3.8775 3.06867C2.84952 3.71978 2.84952 3.71978 2.75673 4.73743Z" stroke="#8B8C91" stroke-width="0.726451" stroke-linecap="round" stroke-linejoin="round"/>
<path d="M6.8564 7.57813C7.65881 7.57813 8.36837 6.93033 8.44123 6.13123C8.5141 5.33213 7.92268 4.68433 7.12026 4.68433C6.31785 4.68433 5.60829 5.33213 5.53543 6.13123C5.46256 6.93033 6.05398 7.57813 6.8564 7.57813Z" stroke="#8B8C91" stroke-width="0.726451" stroke-linecap="round" stroke-linejoin="round"/>
</svg>
