<svg width="13" height="12" viewBox="0 0 13 12" fill="none" xmlns="http://www.w3.org/2000/svg">
<path d="M4.70783 10.7562H7.39098C9.62694 10.7562 10.6025 9.86555 10.8056 7.63883L11.0492 4.96677C11.2523 2.74005 10.4391 1.84937 8.20314 1.84937H5.51999C3.28403 1.84937 2.30843 2.74005 2.10539 4.96677L1.86175 7.63883C1.65871 9.86555 2.47187 10.7562 4.70783 10.7562Z" stroke="#8B8C91" stroke-width="0.670787" stroke-linecap="round" stroke-linejoin="round"/>
<path d="M7.75662 9.19767C8.24853 9.19767 8.68755 8.79686 8.73222 8.30698L9.09769 4.29889C9.14235 3.80901 8.77643 3.4082 8.28452 3.4082C7.79261 3.4082 7.35359 3.80901 7.30892 4.29889L6.94345 8.30698C6.89878 8.79686 7.26024 9.19767 7.75662 9.19767Z" stroke="#8B8C91" stroke-width="0.670787" stroke-linecap="round" stroke-linejoin="round"/>
<path d="M4.62632 9.19774C5.11823 9.19774 5.55725 8.79694 5.60192 8.30706L5.74405 6.74835C5.78872 6.25848 5.42279 5.85767 4.93088 5.85767C4.43897 5.85767 3.99995 6.25848 3.95528 6.74835L3.81316 8.30706C3.76849 8.79694 4.12994 9.19774 4.62632 9.19774Z" stroke="#8B8C91" stroke-width="0.670787" stroke-linecap="round" stroke-linejoin="round"/>
</svg>
