<svg width="12" height="11" viewBox="0 0 12 11" fill="none" xmlns="http://www.w3.org/2000/svg">
<path d="M4.28318 9.95474H6.74679C8.79981 9.95474 9.69559 9.13693 9.88201 7.0924L10.1057 4.63896C10.2922 2.59442 9.54552 1.77661 7.4925 1.77661H5.02888C2.97587 1.77661 2.08009 2.59442 1.89367 4.63896L1.66995 7.0924C1.48353 9.13693 2.23016 9.95474 4.28318 9.95474Z" stroke="#8B8C91" stroke-width="0.615904" stroke-linecap="round" stroke-linejoin="round"/>
<path d="M7.08259 8.52355C7.53425 8.52355 7.93735 8.15553 7.97837 7.70574L8.31393 4.02558C8.35495 3.57578 8.01896 3.20776 7.5673 3.20776C7.11564 3.20776 6.71254 3.57578 6.67152 4.02558L6.33595 7.70574C6.29494 8.15553 6.62682 8.52355 7.08259 8.52355Z" stroke="#8B8C91" stroke-width="0.615904" stroke-linecap="round" stroke-linejoin="round"/>
<path d="M4.20831 8.52359C4.65998 8.52359 5.06308 8.15557 5.10409 7.70577L5.23459 6.2746C5.2756 5.8248 4.93962 5.45679 4.48795 5.45679C4.03629 5.45679 3.63319 5.8248 3.59218 6.2746L3.46168 7.70577C3.42066 8.15557 3.75254 8.52359 4.20831 8.52359Z" stroke="#8B8C91" stroke-width="0.615904" stroke-linecap="round" stroke-linejoin="round"/>
</svg>
