<svg width="11" height="10" viewBox="0 0 11 10" fill="none" xmlns="http://www.w3.org/2000/svg">
<path d="M9.07204 4.19757L9.30616 1.63006C9.3578 1.0637 9.13581 0.837158 8.53297 0.837158H7.00124C6.39841 0.837158 6.1351 1.0637 6.08346 1.63006L5.84935 4.19757C5.79771 4.76393 6.0197 4.99047 6.62253 4.99047H8.15426C8.75709 4.99047 9.0204 4.76393 9.07204 4.19757Z" fill="white"/>
<path d="M5.01526 5.02826L4.78115 7.59576C4.72951 8.16212 4.4662 8.38867 3.86337 8.38867H2.33164C1.72881 8.38867 1.50681 8.16212 1.55846 7.59576L1.79257 5.02826C1.84421 4.4619 2.10752 4.23535 2.71035 4.23535H4.24208C4.84491 4.23535 5.0669 4.4619 5.01526 5.02826Z" fill="white"/>
<path d="M8.76212 7.59572L8.85852 6.53851C8.91017 5.97215 8.68817 5.74561 8.08534 5.74561H6.55361C5.95078 5.74561 5.68747 5.97215 5.63583 6.53851L5.53943 7.59572C5.48779 8.16208 5.70978 8.38862 6.31261 8.38862H7.84434C8.44718 8.38862 8.71048 8.16208 8.76212 7.59572Z" fill="white"/>
<path d="M5.2288 2.68727L5.3252 1.63006C5.37684 1.0637 5.15485 0.837158 4.55202 0.837158H3.02029C2.41745 0.837158 2.15415 1.0637 2.10251 1.63006L2.00611 2.68727C1.95446 3.25363 2.17646 3.48018 2.77929 3.48018H4.31102C4.91385 3.48018 5.17716 3.25363 5.2288 2.68727Z" fill="white"/>
</svg>
