<svg width="11" height="10" viewBox="0 0 11 10" fill="none" xmlns="http://www.w3.org/2000/svg">
<path d="M9.30672 4.53917L9.56026 1.75861C9.61619 1.14525 9.37578 0.899902 8.72292 0.899902H7.06408C6.41122 0.899902 6.12607 1.14525 6.07014 1.75861L5.8166 4.53917C5.76067 5.15253 6.00108 5.39787 6.65394 5.39787H8.31278C8.96564 5.39787 9.25079 5.15253 9.30672 4.53917Z" fill="white"/>
<path d="M4.91329 5.43878L4.65975 8.21935C4.60382 8.83271 4.31866 9.07805 3.66581 9.07805H2.00697C1.35411 9.07805 1.1137 8.83271 1.16963 8.21935L1.42317 5.43878C1.47909 4.82542 1.76425 4.58008 2.41711 4.58008H4.07595C4.7288 4.58008 4.96922 4.82542 4.91329 5.43878Z" fill="white"/>
<path d="M8.97112 8.21922L9.07552 7.07428C9.13145 6.46092 8.89104 6.21558 8.23818 6.21558H6.57934C5.92648 6.21558 5.64133 6.46092 5.5854 7.07428L5.481 8.21922C5.42507 8.83258 5.66548 9.07792 6.31834 9.07792H7.97718C8.63004 9.07792 8.91519 8.83258 8.97112 8.21922Z" fill="white"/>
<path d="M5.14446 2.90354L5.24886 1.75861C5.30479 1.14525 5.06438 0.899902 4.41152 0.899902H2.75268C2.09982 0.899902 1.81466 1.14525 1.75874 1.75861L1.65434 2.90354C1.59841 3.5169 1.83882 3.76225 2.49168 3.76225H4.15052C4.80338 3.76225 5.08853 3.5169 5.14446 2.90354Z" fill="white"/>
</svg>
